<svg xmlns="http://www.w3.org/2000/svg" xmlns:xlink="http://www.w3.org/1999/xlink" width="30" height="30" version="1.1" style=""><rect id="backgroundrect" width="100%" height="100%" x="0" y="0" fill="none" stroke="none"/>

<g class="currentLayer" style=""><title>Layer 1</title><g id="surface1" class="selected" fill="#ffffff" fill-opacity="1">
<path style="stroke: none; fill-rule: nonzero;" d="M 16.539062 15.113281 L 29.226562 2.164062 C 29.71875 1.679688 29.734375 0.882812 29.257812 0.382812 C 28.789062 -0.113281 28.003906 -0.128906 27.515625 0.355469 C 27.503906 0.363281 27.496094 0.375 27.484375 0.382812 L 14.796875 13.335938 L 2.105469 0.382812 C 1.613281 -0.0976562 0.832031 -0.0859375 0.363281 0.414062 C -0.101562 0.902344 -0.101562 1.675781 0.363281 2.164062 L 13.050781 15.113281 L 0.363281 28.058594 C -0.121094 28.550781 -0.121094 29.351562 0.363281 29.839844 C 0.84375 30.332031 1.621094 30.332031 2.105469 29.839844 L 14.796875 16.890625 L 27.484375 29.839844 C 27.976562 30.324219 28.757812 30.308594 29.226562 29.808594 C 29.691406 29.320312 29.691406 28.546875 29.226562 28.058594 Z M 16.539062 15.113281 " id="svg_1" fill="#ffffff" fill-opacity="1"/>
</g></g></svg>